<svg width="29" height="29" viewBox="0 0 138 128" fill="none" xmlns="http://www.w3.org/2000/svg">
  <path xmlns="http://www.w3.org/2000/svg" d="M0 0h133v128H0zm4 4v120h125V4z" fill="#000"/>
  <g fill="#000" transform="translate(17 14) scale(1.78568)" xmlns="http://www.w3.org/2000/svg">
    <path d="M30 30h4v2h-4zM56 0H0v4h56V0ZM9 3H3a1 1 0 1 1 0-2h6a1 1 0 1 1 0 2Zm6 0h-2a1 1 0 0 1 0-2h2a1 1 0 0 1 0 2Zm6 0h-2a1 1 0 0 1 0-2h2a1 1 0 0 1 0 2Zm6 0h-2a1 1 0 0 1 0-2h2a1 1 0 0 1 0 2Zm6 0h-2a1 1 0 0 1 0-2h2a1 1 0 0 1 0 2Zm21 0h-1a1 1 0 0 1 0-2h1a1 1 0 0 1 0 2Z"/>
    <circle cx="42" cy="46" r="1"/>
    <path d="M35 28h4l.001-.005L39 22H25v6h10Zm0-4h1a1 1 0 0 1 0 2h-1a1 1 0 0 1 0-2Zm-8 1a1 1 0 0 1 1-1h1a1 1 0 0 1 0 2h-1a1 1 0 0 1-1-1Zm15 0a1.993 1.993 0 0 0-1-1.722v3.444A1.993 1.993 0 0 0 42 25Zm-5.858 20v-.001L37.836 34h-11.67l1.691 11h8.285ZM29 38a2.002 2.002 0 0 1 2-2h2a2.002 2.002 0 0 1 2 2v2a2.002 2.002 0 0 1-2 2h-2a2.002 2.002 0 0 1-2-2v-2Zm11.656-1.087c.043-.133.064-.273.062-.413a1.51 1.51 0 0 0-1.027-1.413l-.448 2.909a1.504 1.504 0 0 0 1.413-1.083Z"/>
    <circle cx="22" cy="46" r="1"/>
    <path d="M22 25a1.993 1.993 0 0 0 1 1.722v-3.444A1.993 1.993 0 0 0 22 25ZM5 52h6V17H5v35Zm2-32a1 1 0 0 1 2 0v1a1 1 0 0 1-2 0v-1Zm0 5a1 1 0 0 1 2 0v1a1 1 0 0 1-2 0v-1Zm0 5a1 1 0 0 1 2 0v1a1 1 0 0 1-2 0v-1Zm0 5a1 1 0 0 1 2 0v1a1 1 0 0 1-2 0v-1Zm0 5a1 1 0 0 1 2 0v1a1 1 0 0 1-2 0v-1Zm0 5a1 1 0 0 1 2 0v1a1 1 0 0 1-2 0v-1ZM31 38h2v2h-2zM24.757 37.996l-.448-2.909A1.51 1.51 0 0 0 23.28 36.5c-.003.13.015.26.052.385a1.516 1.516 0 0 0 1.425 1.111ZM5 15h46v-4H5v4Zm43.29-2.71c.24-.236.58-.337.91-.27.063.01.123.03.18.06a.756.756 0 0 1 .18.09c.052.037.102.077.15.12l.12.15a.782.782 0 0 1 .09.18c.03.06.05.124.06.19.012.063.019.126.02.19a1.053 1.053 0 0 1-.29.71 1.534 1.534 0 0 1-.15.12.756.756 0 0 1-.18.09.66.66 0 0 1-.18.06 1.032 1.032 0 0 1-.91-.27 1.014 1.014 0 0 1 0-1.42Zm-36 0 .15-.12a.762.762 0 0 1 .18-.09.632.632 0 0 1 .18-.06.847.847 0 0 1 .39 0c.066.01.13.03.19.06a.756.756 0 0 1 .18.09l.15.12a1.014 1.014 0 0 1 0 1.42l-.15.12a.756.756 0 0 1-.18.09.62.62 0 0 1-.19.06A1.247 1.247 0 0 1 13 14a1.541 1.541 0 0 1-.2-.02.649.649 0 0 1-.18-.06.762.762 0 0 1-.18-.09l-.15-.12a1.014 1.014 0 0 1 0-1.42Zm-3 0a1.05 1.05 0 0 1 .9-.27c.066.01.13.03.19.06a.756.756 0 0 1 .18.09l.15.12a1.014 1.014 0 0 1 0 1.42l-.15.12a.756.756 0 0 1-.18.09.62.62 0 0 1-.19.06A1.247 1.247 0 0 1 10 14a1 1 0 0 1-.38-.08.94.94 0 0 1-.33-.21 1.014 1.014 0 0 1 0-1.42Zm-3.21.33a.904.904 0 0 1 .54-.54 1 1 0 0 1 .76 0c.12.05.233.122.33.21a1.004 1.004 0 0 1-1.42 1.42 1.034 1.034 0 0 1-.21-.33.942.942 0 0 1 0-.76Z"/>
    <path d="M13 52h38V17H13v35Zm5.542-12.763a7.113 7.113 0 0 1 .759-1.83 6.036 6.036 0 0 1 1.184-1.434c.31-.263.652-.487 1.018-.665a3.523 3.523 0 0 1 2.912-2.271A1.982 1.982 0 0 1 26.166 32H28v-2h-3a1.994 1.994 0 0 1-1.764-1.077 3.996 3.996 0 0 1 0-7.846A1.994 1.994 0 0 1 25 20h14a1.994 1.994 0 0 1 1.764 1.077 3.996 3.996 0 0 1 0 7.846A1.994 1.994 0 0 1 39 30h-3v2h1.834a1.983 1.983 0 0 1 1.751 1.037 3.525 3.525 0 0 1 2.908 2.27c.368.178.71.402 1.022.666.464.412.862.893 1.178 1.426a7.07 7.07 0 0 1 .764 1.836c.176.678.265 1.375.263 2.075a8.06 8.06 0 0 1-.377 2.443 6.75 6.75 0 0 1-.534 1.224c.123.327.188.673.191 1.023a3 3 0 1 1-3-3c.475.003.942.12 1.362.342.022-.063.053-.123.073-.187a6.09 6.09 0 0 0 .285-1.845 6.17 6.17 0 0 0-.198-1.566 5.05 5.05 0 0 0-.542-1.312 4.233 4.233 0 0 0-.511-.673A3.503 3.503 0 0 1 39.218 40c-.095 0-.185-.025-.278-.032l-.82 5.336A1.99 1.99 0 0 1 36.141 47h-8.284a1.99 1.99 0 0 1-1.977-1.696l-.821-5.337c-.094.008-.185.033-.28.033a3.51 3.51 0 0 1-3.25-2.24 4.317 4.317 0 0 0-.516.68c-.239.408-.42.848-.537 1.305a6.194 6.194 0 0 0 .087 3.402c.02.067.052.129.075.195.42-.222.887-.339 1.361-.342a3 3 0 1 1-3 3c.003-.35.068-.696.191-1.023a6.757 6.757 0 0 1-.536-1.231 8.03 8.03 0 0 1-.375-2.436c-.001-.7.086-1.396.262-2.073Z"/>
    <path d="M56 6H0v50h56.001V6Zm-3 47a1 1 0 0 1-1 1H4a1 1 0 0 1-1-1V11a2.002 2.002 0 0 1 2-2h46a2.002 2.002 0 0 1 2 2v42Z"/>
  </g>
</svg>